<svg width="265" height="323" viewBox="0 0 265 323" fill="none" xmlns="http://www.w3.org/2000/svg">
<g filter="url(#filter0_d_54_2424)">
<path d="M148.875 234.375H115.375C113.072 234.375 111.188 236.259 111.188 238.562V246.938C111.188 258.495 120.568 267.875 132.125 267.875C143.682 267.875 153.062 258.495 153.062 246.938V238.562C153.062 236.259 151.178 234.375 148.875 234.375Z" fill="#0747B2"/>
<path d="M211.688 104.562C209.384 104.562 207.5 102.678 207.5 100.375V45.9375C207.5 43.6344 209.384 41.75 211.688 41.75C213.991 41.75 215.875 43.6344 215.875 45.9375V100.375C215.875 102.678 213.991 104.562 211.688 104.562Z" fill="#0961F5"/>
<path d="M211.688 50.125C218.626 50.125 224.25 44.5006 224.25 37.5625C224.25 30.6244 218.626 25 211.688 25C204.749 25 199.125 30.6244 199.125 37.5625C199.125 44.5006 204.749 50.125 211.688 50.125Z" fill="#FBBB00"/>
<path d="M52.5625 104.562C50.2594 104.562 48.375 102.678 48.375 100.375V45.9375C48.375 43.6344 50.2594 41.75 52.5625 41.75C54.8656 41.75 56.75 43.6344 56.75 45.9375V100.375C56.75 102.678 54.8656 104.562 52.5625 104.562ZM173.539 219.258C172.744 218.253 171.529 217.625 170.231 217.625H94.0187C92.7206 217.625 91.5063 218.211 90.7106 219.258C89.915 220.263 89.6219 221.603 89.9569 222.859L91.0037 226.879C92.1568 231.43 94.7989 235.465 98.5095 238.341C102.22 241.216 106.786 242.769 111.481 242.75H152.769C162.484 242.75 170.901 236.217 173.246 226.921L174.293 222.859C174.628 221.603 174.335 220.263 173.539 219.258Z" fill="#0961F5"/>
<path d="M177.978 175.541C176.001 172.984 173.462 170.917 170.557 169.501C167.652 168.085 164.46 167.357 161.228 167.375H103.022C96.4055 167.375 90.2918 170.348 86.2718 175.541C84.3141 178.024 82.9556 180.926 82.302 184.019C81.6483 187.113 81.7171 190.316 82.503 193.379L90.7524 225.958H173.497L181.747 193.379C182.533 190.316 182.602 187.113 181.948 184.019C181.294 180.926 179.936 178.024 177.978 175.541Z" fill="#0747B2"/>
<path d="M140.5 171.311H123.75C121.447 171.311 119.562 173.196 119.562 175.499V184.125C119.562 191.034 125.216 196.688 132.125 196.688C139.034 196.688 144.688 191.034 144.688 184.125V175.499C144.688 173.196 142.803 171.311 140.5 171.311Z" fill="#FF9D42"/>
<path d="M65.125 96.1875H52.5625C45.6531 96.1875 40 101.841 40 108.75V117.125C40 124.034 45.6531 129.688 52.5625 129.688H65.125C67.4281 129.688 69.3125 127.803 69.3125 125.5V100.375C69.3125 98.0719 67.4281 96.1875 65.125 96.1875ZM211.688 96.1875H199.125C196.822 96.1875 194.938 98.0719 194.938 100.375V125.5C194.938 127.803 196.822 129.688 199.125 129.688H211.688C218.597 129.688 224.25 124.034 224.25 117.125V108.75C224.25 101.841 218.597 96.1875 211.688 96.1875Z" fill="#0747B2"/>
<path d="M177.099 56.532C149.964 48.157 114.328 48.157 87.1513 56.532C71.4481 61.3895 60.9375 75.7945 60.9375 92.4607V133.456C60.9375 150.081 71.49 164.528 87.1513 169.385C100.719 173.573 116.254 175.792 132.125 175.792C147.996 175.792 163.531 173.573 177.099 169.385C192.802 164.528 203.312 150.123 203.312 133.456V92.4607C203.312 75.8364 192.76 61.3895 177.099 56.532Z" fill="#0961F5"/>
<path d="M153.062 83.625H111.188C92.7206 83.625 77.6875 98.6581 77.6875 117.125C77.6875 135.592 92.7206 150.625 111.188 150.625H153.062C171.529 150.625 186.562 135.592 186.562 117.125C186.562 98.6581 171.529 83.625 153.062 83.625Z" fill="#F1F2F2"/>
<path d="M107 129.688C113.938 129.688 119.562 124.063 119.562 117.125C119.562 110.187 113.938 104.562 107 104.562C100.062 104.562 94.4375 110.187 94.4375 117.125C94.4375 124.063 100.062 129.688 107 129.688Z" fill="#0747B2"/>
<path d="M157.25 129.688C164.188 129.688 169.812 124.063 169.812 117.125C169.812 110.187 164.188 104.562 157.25 104.562C150.312 104.562 144.688 110.187 144.688 117.125C144.688 124.063 150.312 129.688 157.25 129.688Z" fill="#0747B2"/>
<path d="M52.5625 50.125C59.5006 50.125 65.125 44.5006 65.125 37.5625C65.125 30.6244 59.5006 25 52.5625 25C45.6244 25 40 30.6244 40 37.5625C40 44.5006 45.6244 50.125 52.5625 50.125Z" fill="#FBBB00"/>
</g>
<defs>
<filter id="filter0_d_54_2424" x="0" y="0" width="264.25" height="322.875" filterUnits="userSpaceOnUse" color-interpolation-filters="sRGB">
<feFlood flood-opacity="0" result="BackgroundImageFix"/>
<feColorMatrix in="SourceAlpha" type="matrix" values="0 0 0 0 0 0 0 0 0 0 0 0 0 0 0 0 0 0 127 0" result="hardAlpha"/>
<feOffset dy="15"/>
<feGaussianBlur stdDeviation="20"/>
<feComposite in2="hardAlpha" operator="out"/>
<feColorMatrix type="matrix" values="0 0 0 0 0.0352941 0 0 0 0 0.380392 0 0 0 0 0.960784 0 0 0 0.7 0"/>
<feBlend mode="normal" in2="BackgroundImageFix" result="effect1_dropShadow_54_2424"/>
<feBlend mode="normal" in="SourceGraphic" in2="effect1_dropShadow_54_2424" result="shape"/>
</filter>
</defs>
</svg>
