<svg width="287" height="350" viewBox="0 0 287 350" fill="none" xmlns="http://www.w3.org/2000/svg">
<circle cx="143.5" cy="159.5" r="132.165" stroke="#0961F5" stroke-opacity="0.1" stroke-width="2.67"/>
<circle cx="144.198" cy="158.801" r="102.29" stroke="#0961F5" stroke-width="2.06647"/>
<circle cx="144.199" cy="158.801" r="117.634" stroke="#0961F5" stroke-opacity="0.24" stroke-width="2.37644"/>
<g filter="url(#filter0_d_94_3304)">
<path d="M161.282 253.804H125.057C122.567 253.804 120.529 255.842 120.529 258.333V267.389C120.529 279.886 130.672 290.029 143.17 290.029C155.668 290.029 165.811 279.886 165.811 267.389V258.333C165.811 255.842 163.773 253.804 161.282 253.804Z" fill="#0747B2"/>
<path d="M229.202 113.432C226.711 113.432 224.674 111.395 224.674 108.904V50.0386C224.674 47.5482 226.711 45.5105 229.202 45.5105C231.692 45.5105 233.73 47.5482 233.73 50.0386V108.904C233.73 111.395 231.692 113.432 229.202 113.432Z" fill="#0961F5"/>
<path d="M229.204 54.5667C236.706 54.5667 242.788 48.4848 242.788 40.9823C242.788 33.4799 236.706 27.3979 229.204 27.3979C221.701 27.3979 215.619 33.4799 215.619 40.9823C215.619 48.4848 221.701 54.5667 229.204 54.5667Z" fill="#FBBB00"/>
<path d="M57.1356 113.432C54.6451 113.432 52.6074 111.395 52.6074 108.904V50.0386C52.6074 47.5482 54.6451 45.5105 57.1356 45.5105C59.626 45.5105 61.6637 47.5482 61.6637 50.0386V108.904C61.6637 111.395 59.626 113.432 57.1356 113.432ZM187.953 237.458C187.093 236.371 185.78 235.692 184.376 235.692H101.964C100.56 235.692 99.2472 236.326 98.3868 237.458C97.5265 238.545 97.2095 239.994 97.5718 241.352L98.7038 245.699C99.9506 250.62 102.808 254.983 106.82 258.093C110.833 261.202 115.77 262.881 120.846 262.861H165.494C175.999 262.861 185.101 255.797 187.636 245.744L188.768 241.352C189.131 239.994 188.814 238.545 187.953 237.458Z" fill="#0961F5"/>
<path d="M192.753 190.184C190.616 187.419 187.87 185.185 184.729 183.653C181.588 182.122 178.135 181.335 174.641 181.354H111.7C104.545 181.354 97.9344 184.569 93.5874 190.184C91.4704 192.87 90.0014 196.007 89.2946 199.353C88.5878 202.698 88.6622 206.162 89.512 209.474L98.4325 244.703H187.908L196.829 209.474C197.679 206.162 197.753 202.698 197.046 199.353C196.339 196.007 194.87 192.87 192.753 190.184Z" fill="#0747B2"/>
<path d="M152.227 185.611H134.114C131.624 185.611 129.586 187.648 129.586 190.139V199.467C129.586 206.938 135.699 213.051 143.17 213.051C150.642 213.051 156.755 206.938 156.755 199.467V190.139C156.755 187.648 154.717 185.611 152.227 185.611Z" fill="#FF9D42"/>
<path d="M70.7196 104.376H57.1352C49.6638 104.376 43.5508 110.489 43.5508 117.96V127.017C43.5508 134.488 49.6638 140.601 57.1352 140.601H70.7196C73.21 140.601 75.2477 138.563 75.2477 136.073V108.904C75.2477 106.414 73.21 104.376 70.7196 104.376ZM229.204 104.376H215.62C213.129 104.376 211.092 106.414 211.092 108.904V136.073C211.092 138.563 213.129 140.601 215.62 140.601H229.204C236.676 140.601 242.788 134.488 242.788 127.017V117.96C242.788 110.489 236.676 104.376 229.204 104.376Z" fill="#0747B2"/>
<path d="M191.802 61.4948C162.459 52.4386 123.925 52.4386 94.5375 61.4948C77.557 66.7475 66.1914 82.3242 66.1914 100.346V144.677C66.1914 162.653 77.6023 178.275 94.5375 183.528C109.209 188.056 126.008 190.456 143.17 190.456C160.331 190.456 177.131 188.056 191.802 183.528C208.782 178.275 220.148 162.699 220.148 144.677V100.346C220.148 82.3695 208.737 66.7475 191.802 61.4948Z" fill="#0961F5"/>
<path d="M165.809 90.7916H120.528C100.559 90.7916 84.3027 107.048 84.3027 127.017C84.3027 146.986 100.559 163.242 120.528 163.242H165.809C185.778 163.242 202.034 146.986 202.034 127.017C202.034 107.048 185.778 90.7916 165.809 90.7916Z" fill="#F1F2F2"/>
<path d="M116 140.601C123.503 140.601 129.585 134.519 129.585 127.017C129.585 119.514 123.503 113.432 116 113.432C108.498 113.432 102.416 119.514 102.416 127.017C102.416 134.519 108.498 140.601 116 140.601Z" fill="#0747B2"/>
<path d="M170.338 140.601C177.841 140.601 183.923 134.519 183.923 127.017C183.923 119.514 177.841 113.432 170.338 113.432C162.836 113.432 156.754 119.514 156.754 127.017C156.754 134.519 162.836 140.601 170.338 140.601Z" fill="#0747B2"/>
<path d="M57.1352 54.5667C64.6376 54.5667 70.7196 48.4848 70.7196 40.9823C70.7196 33.4799 64.6376 27.3979 57.1352 27.3979C49.6327 27.3979 43.5508 33.4799 43.5508 40.9823C43.5508 48.4848 49.6327 54.5667 57.1352 54.5667Z" fill="#FBBB00"/>
</g>
<defs>
<filter id="filter0_d_94_3304" x="0.296997" y="0.364334" width="285.746" height="349.139" filterUnits="userSpaceOnUse" color-interpolation-filters="sRGB">
<feFlood flood-opacity="0" result="BackgroundImageFix"/>
<feColorMatrix in="SourceAlpha" type="matrix" values="0 0 0 0 0 0 0 0 0 0 0 0 0 0 0 0 0 0 127 0" result="hardAlpha"/>
<feOffset dy="16.2202"/>
<feGaussianBlur stdDeviation="21.6269"/>
<feComposite in2="hardAlpha" operator="out"/>
<feColorMatrix type="matrix" values="0 0 0 0 0.0352941 0 0 0 0 0.380392 0 0 0 0 0.960784 0 0 0 0.7 0"/>
<feBlend mode="normal" in2="BackgroundImageFix" result="effect1_dropShadow_94_3304"/>
<feBlend mode="normal" in="SourceGraphic" in2="effect1_dropShadow_94_3304" result="shape"/>
</filter>
</defs>
</svg>
