<svg width="334" height="334" viewBox="0 0 334 334" fill="none" xmlns="http://www.w3.org/2000/svg">
<path d="M333.333 166.667C333.333 258.714 258.714 333.333 166.667 333.333C74.6192 333.333 0 258.714 0 166.667C0 74.6192 74.6192 0 166.667 0C258.714 0 333.333 74.6192 333.333 166.667ZM25 166.667C25 244.907 88.4263 308.333 166.667 308.333C244.907 308.333 308.333 244.907 308.333 166.667C308.333 88.4263 244.907 25 166.667 25C88.4263 25 25 88.4263 25 166.667Z" fill="#C9F0FF"/>
<path d="M166.667 12.4999C166.667 5.59634 172.271 -0.0488662 179.155 0.468437C199.387 1.9887 219.208 7.19356 237.63 15.8621C259.829 26.3079 279.447 41.5258 295.086 60.4292C310.724 79.3327 321.996 101.455 328.097 125.218C334.198 148.981 334.978 173.798 330.381 197.897C325.784 221.996 315.923 244.783 301.503 264.631C287.082 284.479 268.458 300.899 246.959 312.718C225.46 324.537 201.617 331.464 177.132 333.004C156.813 334.283 136.468 331.825 117.097 325.791C110.505 323.738 107.373 316.426 109.914 310.007C112.456 303.588 119.708 300.502 126.326 302.468C142.251 307.199 158.917 309.101 175.562 308.054C196.374 306.744 216.641 300.856 234.915 290.81C253.189 280.764 269.02 266.807 281.277 249.936C293.535 233.065 301.916 213.696 305.824 193.212C309.732 172.728 309.069 151.634 303.883 131.436C298.697 111.237 289.115 92.4328 275.823 76.3648C262.53 60.2969 245.854 47.3617 226.985 38.4827C211.895 31.3816 195.699 27.015 179.151 25.551C172.274 24.9426 166.667 19.4035 166.667 12.4999Z" fill="#9BDCFD"/>
<circle cx="179.166" cy="12.5" r="7.5" fill="white"/>
<path d="M278.333 166.667C278.333 228.338 228.338 278.333 166.667 278.333C104.995 278.333 55 228.338 55 166.667C55 104.995 104.995 55 166.667 55C228.338 55 278.333 104.995 278.333 166.667ZM79.5667 166.667C79.5667 214.771 118.563 253.767 166.667 253.767C214.771 253.767 253.767 214.771 253.767 166.667C253.767 118.563 214.771 79.5667 166.667 79.5667C118.563 79.5667 79.5667 118.563 79.5667 166.667Z" fill="#FFE5E5"/>
<path d="M166.667 67.2833C166.667 60.4994 172.183 54.9301 178.926 55.6748C194.92 57.4413 210.394 62.6502 224.263 70.9998C241.651 81.4682 255.857 96.4775 265.354 114.414C274.851 132.351 279.28 152.537 278.165 172.803C277.049 193.068 270.432 212.646 259.024 229.433C247.616 246.219 231.849 259.579 213.417 268.076C194.985 276.573 174.586 279.886 154.413 277.659C134.24 275.432 115.055 267.749 98.9205 255.435C86.0519 245.614 75.5123 233.144 67.9819 218.923C64.8073 212.928 67.9549 205.749 74.2624 203.252C80.5699 200.755 87.6349 203.901 90.994 209.795C96.7563 219.905 104.508 228.796 113.825 235.906C126.409 245.511 141.374 251.503 157.109 253.241C172.844 254.978 188.755 252.394 203.132 245.766C217.509 239.138 229.807 228.717 238.705 215.624C247.604 202.531 252.765 187.26 253.635 171.453C254.505 155.646 251.05 139.901 243.643 125.91C236.235 111.919 225.154 100.212 211.592 92.0465C201.551 86.0015 190.431 82.067 178.91 80.4313C172.193 79.4777 166.667 74.0672 166.667 67.2833Z" fill="#FF9898"/>
<circle cx="179.166" cy="67.5" r="7.5" fill="white"/>
<path d="M233.333 166.667C233.333 203.486 203.486 233.333 166.667 233.333C129.848 233.333 100 203.486 100 166.667C100 129.848 129.848 100 166.667 100C203.486 100 233.333 129.848 233.333 166.667ZM122.667 166.667C122.667 190.967 142.366 210.667 166.667 210.667C190.967 210.667 210.667 190.967 210.667 166.667C210.667 142.366 190.967 122.667 166.667 122.667C142.366 122.667 122.667 142.366 122.667 166.667Z" fill="#FFEFD7"/>
<path d="M166.667 111.333C166.667 105.074 171.777 99.9019 177.946 100.961C187.116 102.535 195.899 106.019 203.705 111.235C214.668 118.561 223.213 128.973 228.259 141.154C233.304 153.336 234.625 166.741 232.052 179.673C229.48 192.605 223.131 204.484 213.807 213.807C204.484 223.131 192.605 229.48 179.673 232.052C166.741 234.625 153.336 233.304 141.154 228.259C128.973 223.213 118.561 214.668 111.235 203.705C106.02 195.899 102.535 187.116 100.961 177.946C99.902 171.777 105.074 166.667 111.333 166.667C117.593 166.667 122.524 171.822 124.118 177.875C125.353 182.562 127.36 187.038 130.082 191.112C134.917 198.347 141.789 203.987 149.829 207.317C157.869 210.648 166.715 211.519 175.251 209.821C183.786 208.123 191.626 203.933 197.779 197.779C203.933 191.626 208.123 183.786 209.821 175.251C211.519 166.715 210.648 157.868 207.317 149.829C203.987 141.789 198.348 134.917 191.112 130.082C187.038 127.36 182.562 125.353 177.875 124.118C171.823 122.524 166.667 117.592 166.667 111.333Z" fill="#FFD188"/>
<circle cx="179.166" cy="112.5" r="7.5" fill="white"/>
</svg>
