<svg width="46" height="48" viewBox="0 0 46 48" fill="none" xmlns="http://www.w3.org/2000/svg">
<g filter="url(#filter0_i_41_2204)">
<path d="M30.8376 33.2432C30.6009 33.5171 30.3083 33.7371 29.9795 33.8885C29.6507 34.0398 29.2932 34.119 28.9313 34.1206C28.9043 34.1206 28.8788 34.1206 28.8518 34.1191C28.812 34.1185 28.7741 34.1021 28.7464 34.0735C28.7187 34.045 28.7035 34.0066 28.7041 33.9668C28.7047 33.927 28.7211 33.8891 28.7497 33.8614C28.7783 33.8337 28.8167 33.8185 28.8564 33.8191H28.8608C28.8848 33.8206 28.9073 33.8206 28.9313 33.8206C30.1911 33.8206 31.2155 32.7528 31.2155 31.4404C31.219 31.1224 31.1588 30.807 31.0385 30.5126C30.9182 30.2182 30.7402 29.9509 30.5151 29.7263C30.5054 29.716 30.4973 29.7044 30.4911 29.6918C30.4911 29.6903 30.4896 29.6888 30.4896 29.6873C30.479 29.6679 30.473 29.6463 30.472 29.6242C30.4709 29.6021 30.4749 29.5801 30.4836 29.5598C30.5603 29.3183 30.5993 29.0663 30.5991 28.8129C30.5991 27.4975 29.5732 26.4298 28.3135 26.4298C27.0538 26.4298 26.0278 27.4975 26.0278 28.8129C26.0278 28.8526 26.012 28.8908 25.9838 28.9189C25.9557 28.9471 25.9176 28.9629 25.8778 28.9629C25.838 28.9629 25.7999 28.9471 25.7717 28.9189C25.7436 28.8908 25.7278 28.8526 25.7278 28.8129C25.7278 27.3325 26.8872 26.1298 28.3135 26.1298H28.3255C28.4036 25.9128 28.4437 25.684 28.444 25.4534C28.444 24.444 27.7076 23.6221 26.8047 23.6221C26.5035 23.6295 26.2103 23.7205 25.9579 23.885C25.7054 24.0495 25.5037 24.281 25.3753 24.5535C25.3668 24.5713 25.3547 24.5872 25.3398 24.6002C25.325 24.6132 25.3076 24.6231 25.2889 24.6292C25.2701 24.6354 25.2503 24.6377 25.2306 24.636C25.2109 24.6344 25.1918 24.6287 25.1744 24.6195C25.139 24.6015 25.1123 24.5703 25.0999 24.5326C25.0875 24.495 25.0906 24.4539 25.1084 24.4185C25.2577 24.1051 25.4891 23.838 25.778 23.6454C26.0668 23.4528 26.4024 23.3419 26.7492 23.3245C26.0392 22.8296 24.6629 22.001 23.7197 22.2664C23.3297 22.3774 23.0583 22.6609 22.8888 23.1363V26.6729C23.0392 26.4642 23.2457 26.3025 23.4844 26.2064C23.723 26.1103 23.984 26.0838 24.2371 26.13C24.2767 26.1349 24.3127 26.1554 24.3371 26.1869C24.3616 26.2184 24.3726 26.2584 24.3676 26.298C24.3626 26.3375 24.3421 26.3735 24.3106 26.398C24.2791 26.4225 24.2392 26.4334 24.1996 26.4284C23.1677 26.298 22.9173 27.2307 22.8888 27.3507V38.3978C22.8888 40.0595 24.1081 41.4125 25.6078 41.4125C26.5887 41.4125 27.4886 40.8155 27.955 39.8557C27.9565 39.8527 27.9595 39.8512 27.961 39.8482C27.9661 39.84 27.9721 39.8324 27.979 39.8257C27.9847 39.818 27.9913 39.8109 27.9985 39.8047C28.0055 39.7993 28.013 39.7948 28.021 39.7912C28.0298 39.7856 28.0394 39.7816 28.0495 39.7792L28.0585 39.7747C28.5842 39.6496 29.0518 39.3497 29.3848 38.9241C29.7178 38.4985 29.8963 37.9724 29.8912 37.4321C29.8898 37.2482 29.8676 37.0651 29.8252 36.8861C29.8259 36.8807 29.8259 36.8751 29.8252 36.8696C29.8244 36.8602 29.8244 36.8506 29.8252 36.8412C29.8253 36.8331 29.8263 36.825 29.8282 36.8172C29.8316 36.8041 29.8366 36.7915 29.8432 36.7797C29.8446 36.7759 29.8466 36.7723 29.8492 36.7692C29.8587 36.7554 29.8703 36.7432 29.8837 36.7332L29.8867 36.7302C29.8942 36.7257 29.8987 36.7197 29.9062 36.7152C30.206 36.559 30.47 36.3423 30.6816 36.0787C30.8932 35.8151 31.0477 35.5104 31.1352 35.184C31.2228 34.8575 31.2416 34.5164 31.1903 34.1823C31.1391 33.8482 31.019 33.5284 30.8376 33.2432ZM27.3071 36.4767C27.1019 36.4834 26.8978 36.511 26.6982 36.5592C26.6707 36.5842 26.6349 36.5981 26.5977 36.5982H26.5941C26.5843 36.5976 26.5747 36.5956 26.5656 36.5922C25.8592 36.7887 24.9023 37.3196 24.9143 38.7519C24.9143 38.7918 24.8985 38.8301 24.8704 38.8585C24.8423 38.8868 24.8042 38.903 24.7643 38.9034C24.7447 38.9035 24.7253 38.8998 24.7071 38.8924C24.689 38.885 24.6725 38.8741 24.6585 38.8603C24.6446 38.8465 24.6335 38.8301 24.6259 38.812C24.6183 38.7939 24.6144 38.7745 24.6143 38.7549C24.601 37.1696 25.6537 36.5592 26.4456 36.3237C26.4171 33.8476 24.2035 33.6167 24.1075 33.6077C24.0679 33.6037 24.0314 33.5844 24.0059 33.5538C23.9804 33.5232 23.9679 33.4839 23.971 33.4442C23.9748 33.4046 23.9942 33.3682 24.0249 33.3429C24.0555 33.3176 24.095 33.3054 24.1345 33.3092C24.16 33.3107 26.6706 33.5627 26.7442 36.2489C26.9283 36.2087 27.1155 36.1846 27.3037 36.1769H27.3052C27.3449 36.1767 27.3832 36.1923 27.4114 36.2203C27.4397 36.2483 27.4557 36.2863 27.4559 36.3261C27.4561 36.3659 27.4405 36.4041 27.4125 36.4324C27.3845 36.4607 27.3464 36.4766 27.3067 36.4768L27.3071 36.4767ZM28.3135 32.6028H28.303C26.7702 32.4933 26.4342 31.2799 26.3652 30.8736C25.7024 30.8117 25.0888 30.4976 24.6509 29.9962C24.6263 29.966 24.6144 29.9274 24.6178 29.8886C24.6211 29.8497 24.6395 29.8137 24.6689 29.7882C24.6983 29.7627 24.7366 29.7496 24.7755 29.7517C24.8144 29.7539 24.851 29.7711 24.8774 29.7998C25.0948 30.0483 25.363 30.2472 25.664 30.3831C25.9649 30.5189 26.2915 30.5885 26.6217 30.5872C27.2155 30.5961 27.7886 30.3691 28.2154 29.9561C28.6422 29.5431 28.8877 28.9777 28.8983 28.3839C28.8983 28.3441 28.9141 28.306 28.9422 28.2779C28.9703 28.2497 29.0085 28.2339 29.0483 28.2339C29.088 28.2339 29.1262 28.2497 29.1543 28.2779C29.1824 28.306 29.1982 28.3441 29.1982 28.3839C29.1878 29.0487 28.9171 29.6829 28.4442 30.1503C27.9713 30.6177 27.334 30.881 26.6691 30.8837C26.7426 31.2705 27.0515 32.2124 28.3234 32.3024C28.3632 32.3038 28.4008 32.3209 28.4279 32.35C28.4551 32.3791 28.4695 32.4178 28.4681 32.4576C28.4667 32.4974 28.4496 32.535 28.4205 32.5621C28.3914 32.5893 28.3527 32.6037 28.3129 32.6023L28.3135 32.6028ZM21.242 26.1292C21.495 26.0827 21.756 26.1092 21.9946 26.2054C22.2332 26.3016 22.4396 26.4637 22.5896 26.6728V23.1362C22.4216 22.6609 22.1486 22.3774 21.7602 22.2663C20.8145 21.9995 19.4378 22.8296 18.7284 23.3245C19.0752 23.342 19.4109 23.4528 19.7 23.6453C19.989 23.8377 20.2208 24.1047 20.3707 24.4179C20.3886 24.4535 20.3916 24.4948 20.3791 24.5326C20.3666 24.5704 20.3396 24.6018 20.304 24.6197C20.2684 24.6376 20.2271 24.6406 20.1893 24.6281C20.1515 24.6155 20.1201 24.5885 20.1022 24.5529C19.974 24.2805 19.7725 24.0492 19.5204 23.8847C19.2683 23.7203 18.9754 23.6291 18.6744 23.6215C17.77 23.6215 17.0351 24.4434 17.0351 25.4528C17.0347 25.6835 17.0748 25.9124 17.1536 26.1292H17.1656C18.5904 26.1292 19.7513 27.3319 19.7513 28.8123C19.7513 28.852 19.7355 28.8902 19.7074 28.9183C19.6792 28.9465 19.6411 28.9623 19.6013 28.9623C19.5615 28.9623 19.5234 28.9465 19.4952 28.9183C19.4671 28.8902 19.4513 28.852 19.4513 28.8123C19.4513 27.4969 18.4254 26.4292 17.1656 26.4292C15.9057 26.4292 14.8785 27.4975 14.8785 28.8129C14.8783 29.0663 14.9172 29.3183 14.994 29.5598C15.0029 29.58 15.0071 29.602 15.0063 29.624C15.0056 29.6461 14.9998 29.6677 14.9895 29.6873C14.9884 29.6895 14.9868 29.6916 14.985 29.6933C14.9798 29.7057 14.9721 29.7169 14.9625 29.7263C14.7375 29.9509 14.5598 30.2183 14.4397 30.5127C14.3197 30.8071 14.2598 31.1225 14.2636 31.4404C14.2636 32.7528 15.2879 33.8206 16.5478 33.8206C16.5701 33.8206 16.5941 33.8206 16.6166 33.8191C16.6559 33.8196 16.6936 33.8349 16.7222 33.8618C16.7508 33.8887 16.7683 33.9254 16.7711 33.9646C16.7719 33.9844 16.7687 34.004 16.7618 34.0225C16.7549 34.041 16.7444 34.058 16.7309 34.0724C16.7173 34.0867 16.7011 34.0983 16.683 34.1063C16.665 34.1143 16.6455 34.1187 16.6258 34.1191C16.6001 34.1206 16.5731 34.1206 16.5478 34.1206C16.1857 34.1189 15.8281 34.0397 15.4991 33.8884C15.1702 33.7371 14.8774 33.5171 14.6405 33.2432C14.4596 33.5286 14.3399 33.8483 14.2889 34.1823C14.238 34.5163 14.2569 34.8572 14.3444 35.1835C14.4319 35.5099 14.5862 35.8145 14.7975 36.0781C15.0088 36.3417 15.2725 36.5587 15.5719 36.7152C15.5786 36.7198 15.5851 36.7248 15.5914 36.7302C15.5929 36.7317 15.5944 36.7317 15.5959 36.7332C15.6088 36.7436 15.6204 36.7557 15.6304 36.7692C15.6318 36.773 15.6338 36.7765 15.6364 36.7797C15.6424 36.7915 15.6469 36.8041 15.6499 36.8172C15.6522 36.825 15.6537 36.833 15.6543 36.8412C15.6546 36.8507 15.6541 36.8602 15.6528 36.8696C15.6536 36.8751 15.6536 36.8807 15.6528 36.8861C15.6111 37.0652 15.589 37.2483 15.5869 37.4321C15.5818 37.9726 15.7605 38.4987 16.0936 38.9244C16.4268 39.35 16.8947 39.6498 17.4205 39.7747C17.4234 39.7765 17.4264 39.778 17.4295 39.7792C17.4388 39.7825 17.4478 39.7865 17.4565 39.7912C17.4649 39.7951 17.4729 39.7996 17.4805 39.8047C17.4869 39.8108 17.493 39.8173 17.4985 39.8242C17.5062 39.8317 17.5128 39.8403 17.518 39.8497C17.5195 39.8512 17.5225 39.8527 17.5225 39.8557C17.9905 40.8155 18.8889 41.4125 19.8713 41.4125C21.3694 41.4125 22.5896 40.0596 22.5896 38.3978V27.3505C22.5626 27.2306 22.3121 26.2993 21.2787 26.4283C21.2391 26.4331 21.1993 26.4219 21.1679 26.3973C21.1365 26.3727 21.1162 26.3366 21.1115 26.2971C21.1067 26.2575 21.1178 26.2176 21.1425 26.1863C21.1671 26.1549 21.2031 26.1346 21.2427 26.1298L21.242 26.1292ZM17.1761 32.6028H17.1656C17.1258 32.6042 17.0871 32.5897 17.058 32.5626C17.0289 32.5354 17.0117 32.4978 17.0103 32.4581C17.009 32.4183 17.0234 32.3796 17.0506 32.3505C17.0777 32.3214 17.1153 32.3042 17.1551 32.3028C18.4254 32.2128 18.7359 31.2709 18.8094 30.8841C18.1443 30.8816 17.5067 30.6183 17.0336 30.1508C16.5606 29.6833 16.2897 29.0489 16.2793 28.3839C16.2793 28.3441 16.2951 28.306 16.3233 28.2779C16.3514 28.2497 16.3895 28.2339 16.4293 28.2339C16.4691 28.2339 16.5072 28.2497 16.5354 28.2779C16.5635 28.306 16.5793 28.3441 16.5793 28.3839C16.5899 28.9777 16.8355 29.5431 17.2623 29.9561C17.689 30.3691 18.2622 30.5961 18.856 30.5872C19.1863 30.5888 19.513 30.5193 19.814 30.3835C20.1149 30.2476 20.3831 30.0485 20.6003 29.7998C20.6129 29.784 20.6286 29.7709 20.6464 29.7613C20.6642 29.7517 20.6838 29.7458 20.7039 29.744C20.724 29.7421 20.7443 29.7444 20.7636 29.7506C20.7828 29.7568 20.8006 29.7668 20.8159 29.7801C20.8311 29.7933 20.8436 29.8095 20.8524 29.8277C20.8613 29.8459 20.8663 29.8657 20.8674 29.8859C20.8684 29.906 20.8653 29.9262 20.8583 29.9452C20.8513 29.9642 20.8405 29.9815 20.8267 29.9962C20.3895 30.4976 19.7763 30.8117 19.114 30.8736C19.0434 31.2799 18.7089 32.4933 17.1761 32.6028ZM21.3447 33.3092C21.3642 33.3072 21.384 33.3091 21.4028 33.3149C21.4216 33.3206 21.439 33.33 21.4541 33.3426C21.4692 33.3552 21.4816 33.3706 21.4906 33.3881C21.4997 33.4055 21.5051 33.4246 21.5067 33.4442C21.5101 33.4839 21.4977 33.5234 21.4722 33.5541C21.4466 33.5847 21.4099 33.604 21.3702 33.6077C21.2757 33.6167 19.0605 33.8476 19.0321 36.3237C19.824 36.5592 20.8769 37.1696 20.8648 38.7549C20.8644 38.7944 20.8484 38.8322 20.8203 38.86C20.7922 38.8878 20.7543 38.9034 20.7148 38.9034H20.7133C20.6936 38.9032 20.6741 38.8991 20.656 38.8914C20.6379 38.8837 20.6214 38.8725 20.6077 38.8584C20.5939 38.8444 20.583 38.8277 20.5756 38.8094C20.5683 38.7912 20.5646 38.7716 20.5648 38.7519C20.5753 37.3181 19.623 36.7887 18.915 36.5922C18.9047 36.595 18.8941 36.597 18.8835 36.5982H18.882C18.8626 36.5984 18.8433 36.5949 18.8253 36.5877C18.8073 36.5805 18.7909 36.5698 18.777 36.5562C18.5788 36.5091 18.3762 36.4825 18.1726 36.4767C18.1328 36.4765 18.0947 36.4605 18.0667 36.4322C18.0387 36.404 18.0231 36.3657 18.0233 36.326C18.0235 36.2862 18.0395 36.2481 18.0678 36.2201C18.0961 36.1921 18.1343 36.1765 18.1741 36.1767H18.1756C18.3633 36.1844 18.55 36.2085 18.7335 36.2487C18.8079 33.5627 21.317 33.3107 21.3447 33.3092Z" fill="#1B84F8"/>
</g>
<path d="M30.6601 5.52342C29.9082 5.26001 29.0794 4.94197 28.3188 4.65064C26.9206 4.11556 27.1274 4.16946 25.7104 4.53945L25.6611 5.04782C25.4239 5.67589 25.4006 5.8905 24.8856 6.25054C24.4443 6.55911 23.8827 6.75333 23.2219 6.69385C20.965 6.48749 20.5805 3.49939 22.788 2.79388C23.9383 2.42631 24.3566 3.10925 24.8941 3.10342C25.3736 3.09832 26.0706 2.64894 26.8779 2.66666C27.7623 2.68584 38.6363 6.95241 39.5965 7.33503C40.9628 7.87982 41.9966 8.084 42.0461 9.86574C42.0837 11.2132 42.0752 12.7465 42.0427 14.1483C40.8669 14.3717 39.9779 15.4047 39.9779 16.6455C39.9779 18.0495 41.116 19.1877 42.52 19.1877C43.924 19.1877 45.0624 18.0495 45.0624 16.6455C45.0624 15.4013 44.1685 14.3661 42.9881 14.1464L42.9878 9.69434L45.5421 8.53338C45.5132 8.51784 45.3857 8.45059 45.3552 8.43578L44.3195 8.02621C43.8397 7.84122 43.3848 7.65015 42.9031 7.46443L34.3353 4.12721C32.4409 3.38795 30.5406 2.64724 28.5975 1.93421C27.6356 1.58121 26.687 1.20417 25.7252 0.843165C25.2498 0.664724 24.7446 0.493807 24.2687 0.315609C23.6021 0.0657911 23.4919 -0.140569 22.8179 0.122116C19.0597 1.58655 15.1126 3.00655 11.3622 4.4518C10.4802 4.79169 0.603059 8.54187 0 8.96771C0.0191794 8.98009 0.0504972 8.97256 0.0602083 8.99999C0.0696766 9.02719 0.106821 9.02524 0.119931 9.03156L9.81597 12.6851C13.1527 13.951 16.4001 15.0694 19.7392 16.2831C20.8975 16.7043 20.5302 16.6417 22.1702 16.0602L39.5234 9.73707L40.3933 9.32265C40.0667 9.02646 36.2622 7.63753 35.578 7.39475C33.9383 6.81281 32.2933 6.05851 30.6601 5.52342Z" fill="#FBBB00"/>
<path d="M34.4346 44.3095C34.2374 43.8317 33.497 42.8728 33.184 42.4375L30.5647 43.8463C24.2649 46.7854 17.2234 45.6181 11.8747 41.2806C11.5162 40.9898 11.1828 40.6227 10.8607 40.3139C9.97914 39.4686 8.82643 37.9403 8.1906 36.8541C6.46275 33.9031 5.66158 30.6196 5.89878 26.9973C6.11436 23.7096 7.22119 20.5215 9.14811 18.1039C9.70261 17.4083 9.64362 17.8114 9.6441 16.6315C9.64435 16.0842 9.81526 15.0634 9.57006 14.6555C9.10028 14.5853 8.89853 15.0306 8.30688 15.6387C7.44163 16.5278 6.07382 18.7295 5.58705 19.7684C2.82594 25.6584 2.94515 32.4003 6.32412 38C9.40424 43.1044 13.8264 46.2216 19.8364 47.3979C23.7759 48.169 27.9211 47.5047 31.5094 45.9626C32.2527 45.6431 33.9803 44.763 34.4346 44.3095Z" fill="#1B84F8"/>
<path d="M20.5698 18.6429L11.7587 15.4387C11.6516 17.967 11.5101 18.2034 13.1025 18.9592C15.3974 20.0486 18.4812 20.6538 21.0544 20.8262C22.7616 20.9405 24.3622 20.7458 25.9497 20.7999C27.8988 20.6111 32.6269 19.589 34.2916 18.4499C34.7747 18.119 34.9374 18.1692 34.9471 17.3882C34.2064 17.6018 31.0005 19.0738 30.4865 18.7927C29.5467 18.0206 31.9391 17.454 32.5917 17.2022C35.2345 16.1838 34.967 16.6038 34.966 15.4707C34.2204 15.654 31.6222 16.6705 30.6458 17.057C29.9546 17.3304 29.4523 17.4829 29.5875 16.5021C30.1042 16.1425 34.287 14.5686 34.9881 14.3826L34.9714 13.6667L24.3091 17.396C23.4715 17.6902 21.2894 18.6084 20.5698 18.6429Z" fill="#FBBB00"/>
<path d="M30.3962 42.3528C32.2166 41.8441 33.7925 40.4287 35.0517 39.2277C35.6123 38.6934 36.9872 36.7104 37.3802 35.9711C39.1989 32.5501 39.8473 28.7708 39.1663 24.7956C38.8425 22.9056 37.6424 19.571 36.6356 18.3707C36.2061 19.2343 36.0622 18.8318 36.4863 19.7415C37.3079 21.5028 37.7859 22.2746 38.2163 24.5086C39.2129 29.6829 37.9425 34.1345 34.9124 38.0959C34.6164 38.4829 34.3183 38.8781 33.9104 39.2578C33.135 39.9789 32.8141 40.4863 31.6766 41.3525L30.7534 42.0483C30.7463 42.0534 30.6024 42.1602 30.5963 42.1653C30.5805 42.1782 30.5599 42.1959 30.5451 42.2088L30.3962 42.3528Z" fill="#1B84F8"/>
<path d="M16.6766 42.495C8.42513 37.3916 5.63611 28.0726 10.4812 19.4261C10.3661 19.1921 10.2341 18.9323 10.0207 18.748C8.93423 20.0119 7.79901 23.3202 7.4562 25.161C6.37949 30.9427 8.88883 37.7667 13.705 40.9823C14.3533 41.4152 15.8121 42.3326 16.6766 42.495Z" fill="#1B84F8"/>
<path d="M33.4407 13.3863C34.2574 13.3909 39.5261 11.2702 40.4734 10.8468L40.4637 10.2731L35.0651 12.3812C34.5011 12.5885 33.5128 12.7174 33.4407 13.3863Z" fill="#FBBB00"/>
<defs>
<filter id="filter0_i_41_2204" x="14.261" y="22.2147" width="16.9575" height="20.2948" filterUnits="userSpaceOnUse" color-interpolation-filters="sRGB">
<feFlood flood-opacity="0" result="BackgroundImageFix"/>
<feBlend mode="normal" in="SourceGraphic" in2="BackgroundImageFix" result="shape"/>
<feColorMatrix in="SourceAlpha" type="matrix" values="0 0 0 0 0 0 0 0 0 0 0 0 0 0 0 0 0 0 127 0" result="hardAlpha"/>
<feOffset dy="1.09702"/>
<feGaussianBlur stdDeviation="0.548509"/>
<feComposite in2="hardAlpha" operator="arithmetic" k2="-1" k3="1"/>
<feColorMatrix type="matrix" values="0 0 0 0 0 0 0 0 0 0 0 0 0 0 0 0 0 0 0.25 0"/>
<feBlend mode="normal" in2="shape" result="effect1_innerShadow_41_2204"/>
</filter>
</defs>
</svg>
