<svg width="121" height="122" viewBox="0 0 121 122" fill="none" xmlns="http://www.w3.org/2000/svg">
<circle cx="60.4688" cy="60.9881" r="60.0567" fill="#0D6EFD"/>
<path d="M76.8477 66.4475C79.863 66.4475 82.3076 68.8922 82.3076 71.9075C82.3076 74.9159 79.874 77.3554 76.8682 77.3665C81.3816 77.3739 85.037 79.8158 85.0371 82.8264C85.0371 85.8417 81.3706 88.2863 76.8477 88.2864C72.3247 88.2864 68.6582 85.8417 68.6582 82.8264C68.6583 79.8159 72.3131 77.3741 76.8262 77.3665C73.8208 77.3549 71.3877 74.9156 71.3877 71.9075C71.3877 68.8922 73.8324 66.4475 76.8477 66.4475ZM35.9004 58.9407C37.0308 58.9409 37.9471 59.8571 37.9473 60.9875C37.9473 73.4257 48.0306 83.509 60.4688 83.509C61.5994 83.5091 62.5156 84.4262 62.5156 85.5569C62.5154 86.6874 61.5993 87.6037 60.4688 87.6038C45.7691 87.6038 33.8525 75.6872 33.8525 60.9875C33.8527 59.8569 34.7698 58.9407 35.9004 58.9407ZM60.4688 34.3713C75.1682 34.3714 87.0848 46.2881 87.085 60.9875C87.085 62.1183 86.1679 63.0354 85.0371 63.0354C83.9064 63.0353 82.9902 62.1182 82.9902 60.9875C82.9901 48.5496 72.9067 38.4671 60.4688 38.467C59.338 38.467 58.4209 37.5499 58.4209 36.4192C58.4209 35.2885 59.338 34.3713 60.4688 34.3713ZM46.8193 44.6086C51.3422 44.6087 55.0088 47.0533 55.0088 50.0686C55.0088 53.0839 51.3422 55.5285 46.8193 55.5286C42.2964 55.5286 38.6299 53.0839 38.6299 50.0686C38.6299 47.0533 42.2964 44.6086 46.8193 44.6086ZM46.8193 33.6897C49.8345 33.6897 52.2791 36.1335 52.2793 39.1487C52.2793 42.164 49.8346 44.6086 46.8193 44.6086C43.804 44.6086 41.3594 42.164 41.3594 39.1487C41.3596 36.1335 43.8041 33.6897 46.8193 33.6897Z" fill="white"/>
</svg>
