<svg width="130" height="131" viewBox="0 0 130 131" fill="none" xmlns="http://www.w3.org/2000/svg">
<g clip-path="url(#clip0_91_2501)">
<path d="M65.1725 13.4346C68.6263 13.4346 71.4261 10.6348 71.4261 7.18105C71.4261 3.72731 68.6263 0.92749 65.1725 0.92749C61.7188 0.92749 58.9189 3.72731 58.9189 7.18105C58.9189 10.6348 61.7188 13.4346 65.1725 13.4346Z" fill="#0961F5"/>
<path d="M65.1725 130.168C68.6263 130.168 71.4261 127.368 71.4261 123.914C71.4261 120.461 68.6263 117.661 65.1725 117.661C61.7188 117.661 58.9189 120.461 58.9189 123.914C58.9189 127.368 61.7188 130.168 65.1725 130.168Z" fill="#76A9FF"/>
<path d="M35.9899 21.1475C39.4436 21.1475 42.2435 18.3477 42.2435 14.8939C42.2435 11.4402 39.4436 8.64038 35.9899 8.64038C32.5361 8.64038 29.7363 11.4402 29.7363 14.8939C29.7363 18.3477 32.5361 21.1475 35.9899 21.1475Z" fill="#0961F5"/>
<path d="M99.776 113.075C101.444 115.993 100.401 119.745 97.483 121.621C94.5647 123.289 90.8126 122.247 88.9365 119.328C87.2689 116.41 88.3111 112.658 91.2295 110.782C94.1478 109.114 98.1084 110.156 99.776 113.075Z" fill="#94BCFF"/>
<path d="M17.6451 30.9447C20.5635 32.6123 21.6057 36.3645 19.9381 39.4913C18.2705 42.4096 14.5184 43.4518 11.3916 41.7842C8.47325 40.1166 7.43098 36.3645 9.0986 33.2377C10.7662 30.1109 14.7268 29.2771 17.6451 30.9447Z" fill="#0961F5"/>
<path d="M118.954 89.3115C121.872 90.9791 122.914 94.7312 121.247 97.858C119.579 100.776 115.827 101.819 112.7 100.151C109.782 98.4834 108.74 94.7312 110.407 91.6045C112.075 88.6861 115.827 87.6439 118.954 89.3115Z" fill="#D5E4FF"/>
<path d="M6.8063 71.8011C10.26 71.8011 13.0599 69.0013 13.0599 65.5475C13.0599 62.0938 10.26 59.2939 6.8063 59.2939C3.35255 59.2939 0.552734 62.0938 0.552734 65.5475C0.552734 69.0013 3.35255 71.8011 6.8063 71.8011Z" fill="#0961F5"/>
<path d="M123.54 71.8011C126.993 71.8011 129.793 69.0013 129.793 65.5475C129.793 62.0938 126.993 59.2939 123.54 59.2939C120.086 59.2939 117.286 62.0938 117.286 65.5475C117.286 69.0013 120.086 71.8011 123.54 71.8011Z" fill="#0961F5"/>
<path d="M11.3924 89.3115C14.3107 87.6439 18.0628 88.6861 19.9389 91.6045C21.6065 94.5228 20.5643 98.2749 17.6459 100.151C14.7276 101.819 10.9755 100.776 9.0994 97.858C7.22333 94.9397 8.47404 91.1876 11.3924 89.3115Z" fill="#0961F5"/>
<path d="M112.7 30.9445C115.618 29.2769 119.371 30.3192 121.247 33.2375C122.914 36.1559 121.872 39.908 118.954 41.7841C116.035 43.4517 112.283 42.4094 110.407 39.4911C108.74 36.5728 109.782 32.6122 112.7 30.9445Z" fill="#0961F5"/>
<path d="M30.5703 113.075C32.2379 110.156 35.99 109.114 39.1168 110.782C42.0351 112.449 43.0774 116.201 41.4098 119.328C39.7422 122.247 35.99 123.289 32.8633 121.621C29.9449 119.745 28.9027 115.993 30.5703 113.075Z" fill="#0961F5"/>
<path d="M88.9365 11.7673C90.6041 8.84898 94.3562 7.80672 97.483 9.47433C100.401 11.142 101.444 14.8941 99.776 18.0209C98.1084 20.9392 94.3562 21.9815 91.2295 20.3138C88.3111 18.6462 87.2689 14.8941 88.9365 11.7673Z" fill="#0961F5"/>
</g>
<defs>
<clipPath id="clip0_91_2501">
<rect width="129.24" height="129.24" fill="white" transform="translate(0.552734 0.92749)"/>
</clipPath>
</defs>
</svg>
