<svg width="676" height="676" viewBox="0 0 676 676" fill="none" xmlns="http://www.w3.org/2000/svg">
<g opacity="0.7">
<ellipse cx="338.691" cy="337.869" rx="274.691" ry="274.869" stroke="#0961F5" stroke-opacity="0.5" stroke-width="4"/>
<g filter="url(#filter0_i_1_275)">
<path d="M393.021 402.403C391.41 404.269 389.417 405.767 387.178 406.798C384.938 407.828 382.504 408.368 380.039 408.379C379.855 408.379 379.681 408.379 379.497 408.369C379.226 408.364 378.968 408.253 378.78 408.058C378.591 407.864 378.488 407.602 378.492 407.331C378.496 407.06 378.608 406.802 378.802 406.614C378.997 406.425 379.258 406.322 379.529 406.326H379.559C379.722 406.336 379.875 406.336 380.039 406.336C388.619 406.336 395.596 399.063 395.596 390.125C395.619 387.96 395.209 385.811 394.39 383.806C393.571 381.801 392.359 379.981 390.825 378.451C390.759 378.381 390.704 378.302 390.662 378.216C390.662 378.206 390.652 378.196 390.652 378.185C390.58 378.053 390.539 377.906 390.532 377.756C390.524 377.606 390.552 377.456 390.611 377.317C391.134 375.672 391.399 373.956 391.397 372.23C391.397 363.272 384.411 356 375.831 356C367.252 356 360.264 363.272 360.264 372.23C360.264 372.501 360.157 372.761 359.965 372.953C359.774 373.144 359.514 373.252 359.243 373.252C358.972 373.252 358.712 373.144 358.521 372.953C358.329 372.761 358.221 372.501 358.221 372.23C358.221 362.149 366.117 353.957 375.831 353.957H375.913C376.445 352.48 376.718 350.921 376.72 349.351C376.72 342.476 371.705 336.879 365.555 336.879C363.504 336.929 361.507 337.549 359.788 338.669C358.069 339.789 356.695 341.366 355.821 343.222C355.762 343.343 355.68 343.451 355.579 343.54C355.478 343.628 355.36 343.696 355.232 343.738C355.104 343.78 354.969 343.795 354.835 343.784C354.701 343.773 354.571 343.734 354.452 343.671C354.212 343.549 354.029 343.336 353.945 343.08C353.861 342.823 353.882 342.544 354.003 342.303C355.02 340.168 356.596 338.349 358.563 337.037C360.53 335.725 362.816 334.97 365.177 334.852C360.342 331.481 350.969 325.838 344.545 327.646C341.889 328.402 340.04 330.332 338.886 333.57V357.656C339.911 356.235 341.317 355.133 342.943 354.479C344.568 353.824 346.345 353.644 348.069 353.958C348.339 353.992 348.584 354.132 348.75 354.346C348.917 354.561 348.992 354.833 348.958 355.103C348.924 355.372 348.784 355.617 348.57 355.784C348.355 355.95 348.083 356.025 347.814 355.991C340.786 355.103 339.08 361.455 338.886 362.272V437.509C338.886 448.826 347.191 458.04 357.404 458.04C364.085 458.04 370.213 453.975 373.39 447.437C373.4 447.417 373.421 447.407 373.431 447.386C373.465 447.331 373.507 447.279 373.553 447.233C373.592 447.181 373.637 447.133 373.686 447.09C373.734 447.054 373.785 447.023 373.839 446.998C373.899 446.961 373.965 446.933 374.034 446.917L374.095 446.886C377.675 446.034 380.86 443.992 383.127 441.093C385.395 438.194 386.611 434.612 386.576 430.932C386.566 429.679 386.416 428.432 386.127 427.214C386.132 427.176 386.132 427.138 386.127 427.101C386.122 427.037 386.122 426.972 386.127 426.907C386.128 426.852 386.135 426.797 386.147 426.744C386.17 426.655 386.205 426.569 386.249 426.488C386.259 426.462 386.273 426.438 386.29 426.417C386.355 426.323 386.434 426.24 386.525 426.172L386.545 426.151C386.596 426.121 386.627 426.08 386.678 426.049C388.72 424.986 390.518 423.51 391.959 421.715C393.4 419.919 394.452 417.844 395.049 415.621C395.645 413.398 395.773 411.074 395.424 408.799C395.075 406.524 394.257 404.346 393.021 402.403ZM368.977 424.425C367.579 424.471 366.19 424.659 364.83 424.987C364.643 425.157 364.399 425.252 364.146 425.252H364.121C364.055 425.249 363.989 425.235 363.927 425.211C359.116 426.55 352.599 430.166 352.681 439.921C352.681 440.192 352.573 440.453 352.382 440.646C352.191 440.839 351.931 440.949 351.659 440.952C351.526 440.953 351.394 440.927 351.27 440.877C351.146 440.827 351.034 440.752 350.939 440.658C350.844 440.565 350.769 440.453 350.717 440.33C350.665 440.207 350.639 440.074 350.638 439.941C350.547 429.144 357.717 424.987 363.11 423.383C362.916 406.52 347.84 404.947 347.187 404.885C346.917 404.858 346.668 404.727 346.494 404.519C346.321 404.31 346.235 404.042 346.257 403.772C346.283 403.503 346.415 403.254 346.623 403.082C346.832 402.91 347.101 402.827 347.37 402.853C347.544 402.863 364.642 404.579 365.144 422.873C366.397 422.6 367.672 422.436 368.954 422.383H368.964C369.235 422.382 369.495 422.488 369.688 422.679C369.88 422.869 369.989 423.129 369.991 423.399C369.992 423.67 369.886 423.931 369.695 424.123C369.504 424.316 369.245 424.425 368.974 424.426L368.977 424.425ZM375.831 398.042H375.76C365.32 397.296 363.032 389.032 362.563 386.265C358.049 385.844 353.869 383.704 350.887 380.29C350.72 380.084 350.639 379.821 350.661 379.556C350.684 379.292 350.809 379.047 351.01 378.873C351.21 378.699 351.471 378.61 351.736 378.625C352.001 378.639 352.25 378.757 352.43 378.952C353.91 380.644 355.737 381.999 357.787 382.924C359.836 383.849 362.061 384.323 364.309 384.314C368.354 384.375 372.257 382.829 375.163 380.017C378.07 377.204 379.742 373.353 379.814 369.309C379.814 369.038 379.922 368.778 380.113 368.587C380.305 368.395 380.565 368.288 380.835 368.288C381.106 368.288 381.366 368.395 381.558 368.587C381.749 368.778 381.857 369.038 381.857 369.309C381.786 373.837 379.942 378.156 376.721 381.339C373.501 384.522 369.16 386.316 364.632 386.334C365.133 388.968 367.237 395.383 375.899 395.996C376.17 396.005 376.426 396.122 376.611 396.32C376.795 396.518 376.894 396.782 376.884 397.053C376.875 397.324 376.758 397.58 376.56 397.765C376.362 397.95 376.098 398.048 375.827 398.039L375.831 398.042ZM327.67 353.953C329.394 353.637 331.172 353.817 332.797 354.472C334.422 355.128 335.827 356.232 336.848 357.655V333.569C335.704 330.332 333.845 328.402 331.2 327.645C324.759 325.827 315.383 331.481 310.552 334.852C312.914 334.971 315.2 335.726 317.169 337.036C319.138 338.347 320.716 340.165 321.737 342.299C321.859 342.541 321.879 342.822 321.794 343.08C321.709 343.337 321.525 343.55 321.282 343.672C321.04 343.794 320.759 343.815 320.501 343.73C320.244 343.644 320.03 343.46 319.908 343.218C319.035 341.363 317.663 339.787 315.946 338.667C314.229 337.547 312.234 336.926 310.184 336.875C304.025 336.875 299.02 342.472 299.02 349.347C299.017 350.918 299.29 352.477 299.826 353.953H299.908C309.612 353.953 317.518 362.144 317.518 372.226C317.518 372.497 317.411 372.757 317.219 372.949C317.027 373.14 316.768 373.248 316.497 373.248C316.226 373.248 315.966 373.14 315.774 372.949C315.583 372.757 315.475 372.497 315.475 372.226C315.475 363.268 308.488 355.996 299.908 355.996C291.328 355.996 284.332 363.272 284.332 372.23C284.33 373.956 284.596 375.672 285.118 377.317C285.179 377.455 285.208 377.605 285.203 377.755C285.197 377.905 285.158 378.052 285.088 378.185C285.08 378.201 285.07 378.215 285.057 378.226C285.022 378.311 284.97 378.387 284.904 378.451C283.372 379.981 282.161 381.802 281.344 383.807C280.526 385.812 280.118 387.96 280.144 390.125C280.144 399.063 287.121 406.336 295.701 406.336C295.853 406.336 296.016 406.336 296.17 406.326C296.437 406.329 296.694 406.433 296.889 406.616C297.083 406.8 297.202 407.05 297.222 407.317C297.227 407.451 297.206 407.585 297.158 407.711C297.111 407.837 297.04 407.952 296.948 408.05C296.855 408.148 296.745 408.227 296.622 408.281C296.499 408.336 296.366 408.366 296.232 408.369C296.057 408.379 295.873 408.379 295.701 408.379C293.235 408.367 290.799 407.828 288.559 406.797C286.318 405.767 284.324 404.268 282.711 402.403C281.479 404.347 280.664 406.525 280.317 408.799C279.97 411.074 280.098 413.396 280.694 415.618C281.291 417.84 282.341 419.915 283.78 421.71C285.219 423.506 287.015 424.983 289.054 426.049C289.1 426.081 289.145 426.115 289.187 426.151C289.197 426.161 289.207 426.161 289.218 426.172C289.306 426.243 289.385 426.325 289.453 426.417C289.462 426.443 289.476 426.467 289.493 426.488C289.535 426.569 289.565 426.655 289.585 426.744C289.601 426.797 289.612 426.852 289.616 426.907C289.618 426.972 289.614 427.037 289.606 427.101C289.611 427.138 289.611 427.176 289.606 427.214C289.322 428.433 289.171 429.68 289.156 430.932C289.122 434.613 290.339 438.196 292.608 441.095C294.877 443.994 298.063 446.035 301.645 446.886C301.664 446.898 301.685 446.908 301.706 446.917C301.769 446.939 301.831 446.967 301.89 446.998C301.946 447.025 302.001 447.056 302.053 447.09C302.097 447.132 302.138 447.176 302.176 447.223C302.228 447.274 302.273 447.333 302.309 447.397C302.319 447.407 302.339 447.417 302.339 447.437C305.526 453.975 311.645 458.04 318.335 458.04C328.539 458.04 336.848 448.827 336.848 437.509V362.271C336.664 361.454 334.959 355.112 327.921 355.99C327.651 356.023 327.38 355.947 327.166 355.779C326.953 355.612 326.814 355.366 326.782 355.096C326.749 354.827 326.825 354.555 326.993 354.342C327.16 354.128 327.406 353.99 327.676 353.957L327.67 353.953ZM299.98 398.042H299.908C299.637 398.051 299.374 397.953 299.175 397.768C298.977 397.583 298.86 397.327 298.851 397.056C298.842 396.785 298.94 396.521 299.125 396.323C299.31 396.125 299.566 396.008 299.837 395.999C308.488 395.386 310.603 388.971 311.103 386.337C306.574 386.32 302.232 384.527 299.01 381.343C295.788 378.159 293.943 373.838 293.872 369.309C293.872 369.038 293.98 368.778 294.172 368.587C294.363 368.395 294.623 368.288 294.894 368.288C295.165 368.288 295.425 368.395 295.616 368.587C295.808 368.778 295.915 369.038 295.915 369.309C295.987 373.353 297.66 377.204 300.567 380.017C303.473 382.829 307.377 384.375 311.421 384.314C313.67 384.325 315.895 383.852 317.945 382.927C319.995 382.002 321.822 380.646 323.301 378.952C323.387 378.844 323.493 378.755 323.615 378.69C323.736 378.624 323.869 378.584 324.006 378.572C324.143 378.559 324.281 378.574 324.412 378.617C324.544 378.659 324.665 378.727 324.769 378.817C324.873 378.908 324.957 379.018 325.018 379.142C325.078 379.266 325.112 379.4 325.119 379.538C325.126 379.675 325.105 379.813 325.057 379.942C325.01 380.071 324.937 380.19 324.842 380.29C321.865 383.704 317.689 385.844 313.178 386.265C312.697 389.032 310.419 397.296 299.98 398.042ZM328.37 402.853C328.503 402.839 328.638 402.852 328.766 402.891C328.894 402.93 329.012 402.995 329.115 403.08C329.218 403.166 329.303 403.271 329.364 403.39C329.426 403.509 329.463 403.639 329.473 403.772C329.497 404.043 329.412 404.312 329.238 404.52C329.064 404.729 328.814 404.86 328.544 404.885C327.9 404.947 312.813 406.52 312.62 423.383C318.014 424.987 325.184 429.144 325.102 439.941C325.099 440.21 324.99 440.467 324.799 440.657C324.607 440.846 324.349 440.952 324.08 440.952H324.07C323.936 440.951 323.803 440.923 323.68 440.871C323.556 440.818 323.444 440.742 323.351 440.646C323.257 440.55 323.183 440.437 323.132 440.312C323.082 440.188 323.057 440.055 323.059 439.921C323.13 430.155 316.645 426.55 311.823 425.211C311.752 425.231 311.681 425.245 311.608 425.252H311.598C311.466 425.254 311.334 425.23 311.212 425.181C311.089 425.132 310.977 425.059 310.883 424.966C309.533 424.646 308.153 424.465 306.766 424.425C306.495 424.424 306.236 424.315 306.045 424.122C305.855 423.93 305.749 423.669 305.75 423.398C305.751 423.127 305.86 422.868 306.053 422.678C306.245 422.487 306.506 422.381 306.777 422.382H306.787C308.065 422.435 309.337 422.599 310.587 422.872C311.093 404.579 328.181 402.863 328.37 402.853Z" fill="#1B84F8"/>
</g>
<path d="M391.811 213.617C386.69 211.823 381.046 209.657 375.865 207.673C366.343 204.029 367.752 204.396 358.101 206.916L357.765 210.378C356.15 214.656 355.991 216.117 352.484 218.569C349.478 220.671 345.654 221.994 341.153 221.589C325.783 220.183 323.164 199.833 338.198 195.028C346.032 192.524 348.881 197.176 352.542 197.136C355.807 197.101 360.554 194.041 366.052 194.161C372.076 194.292 446.133 223.35 452.673 225.955C461.978 229.666 469.018 231.056 469.356 243.191C469.612 252.367 469.554 262.811 469.333 272.357C461.325 273.879 455.27 280.914 455.27 289.365C455.27 298.927 463.021 306.678 472.583 306.678C482.145 306.678 489.898 298.927 489.898 289.365C489.898 280.891 483.81 273.841 475.771 272.344L475.769 242.023L493.165 234.117C492.968 234.011 492.1 233.553 491.892 233.452L484.839 230.663C481.571 229.403 478.473 228.102 475.192 226.837L416.841 204.108C403.939 199.074 390.998 194.029 377.763 189.173C371.213 186.769 364.753 184.201 358.202 181.742C354.964 180.527 351.523 179.363 348.283 178.149C343.742 176.448 342.992 175.043 338.402 176.832C312.807 186.805 285.925 196.476 260.383 206.319C254.376 208.634 187.107 234.175 183 237.075C183.131 237.159 183.344 237.108 183.41 237.295C183.475 237.48 183.728 237.467 183.817 237.51L249.852 262.392C272.577 271.013 294.693 278.631 317.434 286.896C325.323 289.765 322.821 289.338 333.99 285.378L452.175 242.314L458.099 239.492C455.875 237.475 429.964 228.016 425.305 226.362C414.137 222.399 402.934 217.262 391.811 213.617Z" fill="#FBBB00"/>
<path d="M417.517 477.771C416.174 474.517 411.132 467.986 409 465.021L391.161 474.616C348.256 494.633 300.3 486.683 263.873 457.142C261.431 455.162 259.161 452.662 256.967 450.558C250.963 444.801 243.112 434.393 238.782 426.995C227.014 406.898 221.558 384.535 223.174 359.866C224.642 337.475 232.18 315.762 245.303 299.297C249.08 294.56 248.678 297.304 248.681 289.269C248.683 285.542 249.847 278.589 248.177 275.811C244.977 275.334 243.603 278.366 239.574 282.508C233.681 288.563 224.366 303.558 221.051 310.633C202.246 350.747 203.058 396.663 226.07 434.799C247.048 469.563 277.165 490.793 318.096 498.804C344.926 504.055 373.157 499.532 397.595 489.029C402.658 486.853 414.424 480.859 417.517 477.771Z" fill="#1B84F8"/>
<path d="M323.091 302.968L263.083 281.145C262.353 298.364 261.39 299.975 272.234 305.122C287.864 312.541 308.866 316.663 326.391 317.837C338.018 318.616 348.919 317.29 359.731 317.658C373.005 316.372 405.206 309.411 416.543 301.653C419.834 299.399 420.941 299.742 421.008 294.423C415.963 295.878 394.129 305.902 390.629 303.988C384.228 298.73 400.521 294.871 404.966 293.156C422.965 286.22 421.143 289.08 421.137 281.364C416.059 282.612 398.364 289.535 391.714 292.167C387.006 294.029 383.585 295.067 384.506 288.388C388.025 285.939 416.512 275.22 421.287 273.953L421.173 269.077L348.557 294.475C342.853 296.479 327.992 302.733 323.091 302.968Z" fill="#FBBB00"/>
<path d="M390.016 464.444C402.413 460.98 413.145 451.341 421.722 443.161C425.54 439.522 434.903 426.016 437.58 420.982C449.966 397.683 454.382 371.944 449.744 344.871C447.539 331.999 439.366 309.289 432.509 301.114C429.584 306.995 428.603 304.254 431.492 310.449C437.087 322.445 440.343 327.701 443.274 342.916C450.062 378.156 441.409 408.473 420.773 435.453C418.757 438.088 416.727 440.78 413.949 443.366C408.668 448.277 406.482 451.732 398.736 457.632L392.448 462.371C392.4 462.405 391.419 463.133 391.378 463.168C391.27 463.255 391.13 463.376 391.029 463.464L390.016 464.444Z" fill="#1B84F8"/>
<path d="M296.578 465.413C240.381 430.656 221.386 367.189 254.384 308.302C253.6 306.708 252.701 304.938 251.247 303.684C243.848 312.291 236.117 334.823 233.782 347.359C226.449 386.736 243.539 433.211 276.34 455.11C280.755 458.059 290.69 464.307 296.578 465.413Z" fill="#1B84F8"/>
<path d="M410.75 267.167C416.312 267.199 452.195 252.756 458.646 249.872L458.58 245.965L421.813 260.322C417.972 261.734 411.241 262.612 410.75 267.167Z" fill="#FBBB00"/>
<ellipse cx="338.267" cy="338.049" rx="335.733" ry="335.951" stroke="#0961F5" stroke-width="4"/>
</g>
<defs>
<filter id="filter0_i_1_275" x="280.126" y="327.293" width="115.49" height="138.218" filterUnits="userSpaceOnUse" color-interpolation-filters="sRGB">
<feFlood flood-opacity="0" result="BackgroundImageFix"/>
<feBlend mode="normal" in="SourceGraphic" in2="BackgroundImageFix" result="shape"/>
<feColorMatrix in="SourceAlpha" type="matrix" values="0 0 0 0 0 0 0 0 0 0 0 0 0 0 0 0 0 0 127 0" result="hardAlpha"/>
<feOffset dy="7.47126"/>
<feGaussianBlur stdDeviation="3.73563"/>
<feComposite in2="hardAlpha" operator="arithmetic" k2="-1" k3="1"/>
<feColorMatrix type="matrix" values="0 0 0 0 0 0 0 0 0 0 0 0 0 0 0 0 0 0 0.25 0"/>
<feBlend mode="normal" in2="shape" result="effect1_innerShadow_1_275"/>
</filter>
</defs>
</svg>
